<svg style="isolation:isolate" viewBox="0 0 48 48" width="48pt" height="48pt" id="svg971" sodipodi:docname="intellij-community.svg" inkscape:version="1.1.2 (0a00cf5339, 2022-02-04)" xmlns:inkscape="http://www.inkscape.org/namespaces/inkscape" xmlns:sodipodi="http://sodipodi.sourceforge.net/DTD/sodipodi-0.dtd" xmlns:xlink="http://www.w3.org/1999/xlink" xmlns="http://www.w3.org/2000/svg" xmlns:svg="http://www.w3.org/2000/svg"><defs id="defs975"><linearGradient inkscape:collect="always" xlink:href="#_lgradient_76" id="linearGradient1668" x1="1.0624601" y1="23.684469" x2="46.634315" y2="23.684469" gradientUnits="userSpaceOnUse" gradientTransform="matrix(0.9705087,0,0,0.97020148,0.85493185,1.0212903)"/><linearGradient id="linearGradient1327" x1=".50999999" y1="-.017441861" x2=".30137169" y2="1.0771763" gradientTransform="matrix(29.74,0,0,47.99,18.26,0.17)" gradientUnits="userSpaceOnUse"><stop offset="0" stop-opacity="1" style="stop-color:#16b5e4" id="stop2"/><stop offset="98.26086956521739%" stop-opacity="1" style="stop-color:#f520fa" id="stop4"/></linearGradient></defs><sodipodi:namedview id="namedview973" pagecolor="#505050" bordercolor="#eeeeee" borderopacity="1" inkscape:pageshadow="0" inkscape:pageopacity="0" inkscape:pagecheckerboard="0" inkscape:document-units="pt" showgrid="true" inkscape:zoom="11.376538" inkscape:cx="27.029312" inkscape:cy="31.775922" inkscape:window-width="1920" inkscape:window-height="1016" inkscape:window-x="0" inkscape:window-y="27" inkscape:window-maximized="1" inkscape:current-layer="svg971" gridtolerance="1e4" guidetolerance="20"><inkscape:grid type="xygrid" id="grid1876" spacingx="6" spacingy="6" dotted="false" originx="-2.25" originy="-2.25"/></sodipodi:namedview><linearGradient id="_lgradient_72" x1=".5100000000000006" y1="-.017441860465116255" x2=".30137168141592974" y2="1.0771763737394529" gradientTransform="matrix(29.74,0,0,47.99,18.182174,-1.7533108)" gradientUnits="userSpaceOnUse"><stop offset="0" stop-opacity="1" style="stop-color:#16b5e4" id="stop922"/><stop offset="98.26086956521739%" stop-opacity="1" style="stop-color:#f520fa" id="stop924"/></linearGradient><linearGradient id="_lgradient_73" x1=".6718099850460906" y1=".020570018975650584" x2=".07103923938064405" y2=".7708333333333337" gradientTransform="matrix(27.86,0,0,17.62,2.14,30.57)" gradientUnits="userSpaceOnUse"><stop offset="0" stop-opacity="1" style="stop-color:#1a6cff" id="stop929"/><stop offset="100%" stop-opacity="1" style="stop-color:#c522ff" id="stop931"/></linearGradient><linearGradient id="_lgradient_74" x1=".24999999999999994" y1=".29211381255776253" x2="1.1365638766519823" y2="1.1438381074703665" gradientTransform="matrix(11.44,0,0,15.94,0.56,20.88)" gradientUnits="userSpaceOnUse"><stop offset="0" stop-opacity="1" style="stop-color:#ffe031" id="stop936"/><stop offset="98.69565217391305%" stop-opacity="1" style="stop-color:#fc5252" id="stop938"/></linearGradient><linearGradient id="_lgradient_75" x1=".06696428571428571" y1="-.35655353374249915" x2=".9451362781954887" y2=".8746628690424132" gradientTransform="matrix(35.71,0,0,23.11,-0.71,0.89)" gradientUnits="userSpaceOnUse"><stop offset="0" stop-opacity="1" style="stop-color:#f9d423" id="stop943"/><stop offset="51.56237565086822%" stop-opacity="1" style="stop-color:#ff4e50" id="stop945"/><stop offset="99.1304347826087%" stop-opacity="1" style="stop-color:#8a2387" id="stop947"/></linearGradient><linearGradient id="_lgradient_76" x1="0" y1=".5" x2="1" y2=".5" gradientTransform="matrix(29,0,0,-29,9.5,38.5)" gradientUnits="userSpaceOnUse"><stop offset="0" stop-opacity="1" style="stop-color:#5800e2" id="stop952"/><stop offset="100%" stop-opacity="1" style="stop-color:#ff00e6" id="stop954"/></linearGradient><path d="M35.978 16.782c0 .695.564999999999998 1.26 1.261 1.26C37.935 18.042 38.5 17.477 38.5 16.782v-4.13c0-1.74-1.412-3.152-3.152-3.152H12.652c-1.74.0-3.152 1.412-3.152 3.152V24.63C9.5 25.326 10.065 25.891 10.761 25.891 11.457 25.891 12.022 25.326 12.022 24.63V13.913c0-1.044.847-1.891 1.891-1.891H34.087c1.044.0 1.891.847 1.891 1.891v2.869zM12.022 31.218c0-.695-.565-1.26-1.261-1.26C10.065 29.958 9.5 30.523 9.5 31.218v4.13c0 1.74 1.412 3.152 3.152 3.152H35.348c1.74.0 3.152-1.412 3.152-3.152V22.853C38.5 22.157 37.935 21.592 37.239 21.592 36.543 21.592 35.978 22.157 35.978 22.853V34.087C35.978 35.131 35.131 35.978 34.087 35.978H13.913C12.869 35.978 12.022 35.131 12.022 34.087V31.218zM14 33.5h9V31H14v2.5z" fill-rule="evenodd" fill="url(#_lgradient_76)" id="path957"/><linearGradient id="_lgradient_77" x1="-.2979670812548692" y1=".49682917665605386" x2="1.4412044120717482" y2=".4850621313315805" gradientTransform="matrix(15.884,0,0,10.623,14.858,14.722)" gradientUnits="userSpaceOnUse"><stop offset="0" stop-opacity="1" style="stop-color:#5800e2" id="stop959"/><stop offset="100%" stop-opacity="1" style="stop-color:#ff00e6" id="stop961"/></linearGradient><linearGradient id="_lgradient_78" x1="-.2664888641810843" y1=".5085962219805272" x2="1.4648130748770878" y2=".48506213133158166"><stop offset="0" stop-opacity="1" style="stop-color:#5800e2" id="stop964"/><stop offset="100%" stop-opacity="1" style="stop-color:#ff00e6" id="stop966"/></linearGradient><path d="M21.862 14.722v1.567H19.363V23.6h2.499v1.566H14.858V23.6H17.34V16.289H14.858V14.722h7.004zm4.919 10.623q-1.292.0-2.278-.567Q23.517 24.211 22.99 23.182L24.724 22.451Q25.438 23.659 26.798 23.659q1.938.0 1.938-2.133V14.722h2.006v6.893Q30.742 22.674 30.385 23.435 30.028 24.196 29.416 24.592 28.804 24.987 28.158 25.166 27.512 25.345 26.781 25.345z" fill="url(#_lgradient_77)" vector-effect="non-scaling-stroke" stroke-width=".5" stroke="url(#_lgradient_78)" stroke-linejoin="miter" stroke-linecap="square" stroke-miterlimit="3" id="path969"/><rect style="fill:none;fill-rule:evenodd;stroke:url(#linearGradient1668);stroke-width:3.86667;stroke-linecap:butt;stroke-linejoin:round;stroke-miterlimit:1;stroke-dasharray:none;stroke-opacity:1" id="rect1616" width="43.5" height="43.5" x="2.25" y="2.25" ry="2.175"/></svg>